<svg width="21" height="21" viewBox="0 0 21 21" fill="none" xmlns="http://www.w3.org/2000/svg">
<path d="M3.36583e-06 2.00003C0.000175801 1.63719 0.0990525 1.28123 0.286042 0.970279C0.473032 0.659332 0.74109 0.40511 1.0615 0.234847C1.38191 0.0645837 1.74261 -0.0153072 2.10495 0.00373242C2.46729 0.022772 2.81763 0.140025 3.11843 0.34293C3.41923 0.545836 3.65917 0.826751 3.81255 1.15558C3.96592 1.48442 4.02694 1.84878 3.98909 2.20964C3.95123 2.5705 3.81592 2.91426 3.59765 3.20411C3.37938 3.49395 3.08637 3.71896 2.75 3.85503V9.25003H9.25V3.85503C8.81974 3.68098 8.4634 3.3627 8.24207 2.95474C8.02073 2.54677 7.94817 2.07453 8.03683 1.61894C8.12549 1.16335 8.36984 0.752782 8.72801 0.457593C9.08618 0.162404 9.53587 0.000977018 10 0.000977018C10.4641 0.000977018 10.9138 0.162404 11.272 0.457593C11.6302 0.752782 11.8745 1.16335 11.9632 1.61894C12.0518 2.07453 11.9793 2.54677 11.7579 2.95474C11.5366 3.3627 11.1803 3.68098 10.75 3.85503V9.25003H14C14.964 9.25003 15.612 9.24803 16.095 9.18403C16.556 9.12103 16.754 9.01403 16.884 8.88403C17.014 8.75403 17.121 8.55603 17.184 8.09403C17.248 7.61203 17.25 6.96403 17.25 6.00003V3.85503C16.8197 3.68098 16.4634 3.3627 16.2421 2.95474C16.0207 2.54677 15.9482 2.07453 16.0368 1.61894C16.1255 1.16335 16.3698 0.752782 16.728 0.457593C17.0862 0.162404 17.5359 0.000977018 18 0.000977018C18.4641 0.000977018 18.9138 0.162404 19.272 0.457593C19.6302 0.752782 19.8745 1.16335 19.9632 1.61894C20.0518 2.07453 19.9793 2.54677 19.7579 2.95474C19.5366 3.3627 19.1803 3.68098 18.75 3.85503V6.05203C18.75 6.95003 18.75 7.70003 18.67 8.29403C18.586 8.92203 18.4 9.48903 17.944 9.94403C17.489 10.4 16.922 10.586 16.294 10.67C15.7 10.75 14.951 10.75 14.052 10.75H10.75V16.145C11.1803 16.3191 11.5366 16.6374 11.7579 17.0453C11.9793 17.4533 12.0518 17.9255 11.9632 18.3811C11.8745 18.8367 11.6302 19.2473 11.272 19.5425C10.9138 19.8376 10.4641 19.9991 10 19.9991C9.53587 19.9991 9.08618 19.8376 8.72801 19.5425C8.36984 19.2473 8.12549 18.8367 8.03683 18.3811C7.94817 17.9255 8.02073 17.4533 8.24207 17.0453C8.4634 16.6374 8.81974 16.3191 9.25 16.145V10.75H2.75V16.145C3.18027 16.3191 3.5366 16.6374 3.75794 17.0453C3.97928 17.4533 4.05183 17.9255 3.96318 18.3811C3.87452 18.8367 3.63017 19.2473 3.272 19.5425C2.91383 19.8376 2.46414 19.9991 2 19.9991C1.53587 19.9991 1.08618 19.8376 0.728011 19.5425C0.369841 19.2473 0.125488 18.8367 0.03683 18.3811C-0.051828 17.9255 0.0207287 17.4533 0.242065 17.0453C0.463402 16.6374 0.819738 16.3191 1.25 16.145V3.85503C0.880534 3.70557 0.564145 3.44913 0.341425 3.11862C0.118706 2.7881 -0.000186004 2.39858 3.36583e-06 2.00003Z" fill="#CB0000"/>
<path fill-rule="evenodd" clip-rule="evenodd" d="M15.25 13C15.25 12.8011 15.329 12.6103 15.4697 12.4697C15.6103 12.329 15.8011 12.25 16 12.25H18.286C19.661 12.25 20.75 13.384 20.75 14.75C20.7518 15.264 20.5953 15.7661 20.3017 16.188C20.008 16.6099 19.5916 16.9311 19.109 17.108L20.639 19.608C20.6905 19.692 20.7249 19.7853 20.7403 19.8826C20.7558 19.9799 20.7519 20.0792 20.7289 20.175C20.7059 20.2708 20.6643 20.3611 20.6064 20.4408C20.5485 20.5205 20.4755 20.588 20.3915 20.6395C20.3075 20.691 20.2142 20.7254 20.1169 20.7408C20.0196 20.7563 19.9203 20.7524 19.8245 20.7294C19.7287 20.7064 19.6384 20.6648 19.5587 20.6069C19.479 20.549 19.4115 20.476 19.36 20.392L17.437 17.25H16.75V20C16.75 20.1989 16.671 20.3897 16.5303 20.5303C16.3897 20.671 16.1989 20.75 16 20.75C15.8011 20.75 15.6103 20.671 15.4697 20.5303C15.329 20.3897 15.25 20.1989 15.25 20V13ZM16.75 15.75H18.286C18.804 15.75 19.25 15.317 19.25 14.75C19.25 14.183 18.804 13.75 18.286 13.75H16.75V15.75Z" fill="#CB0000"/>
</svg>
