<svg width="100" height="100" viewBox="0 0 100 100" fill="none" xmlns="http://www.w3.org/2000/svg">
<path d="M86.8633 61.8984L68.461 53.6524L68.4102 53.6289C67.4548 53.2203 66.4127 53.0563 65.378 53.1518C64.3434 53.2473 63.3488 53.5992 62.4844 54.1758C62.3826 54.243 62.2848 54.316 62.1914 54.3945L52.6836 62.5C46.6602 59.5742 40.4414 53.4023 37.5157 47.457L45.6328 37.8047C45.711 37.707 45.7852 37.6094 45.8555 37.5039C46.4197 36.6418 46.762 35.6536 46.8519 34.6272C46.9419 33.6009 46.7767 32.5682 46.3711 31.6211V31.5742L38.1016 13.1406C37.5654 11.9034 36.6435 10.8727 35.4734 10.2025C34.3034 9.53228 32.9479 9.25844 31.6094 9.42188C26.3163 10.1184 21.4578 12.7178 17.9412 16.7348C14.4246 20.7517 12.4905 25.9113 12.5 31.25C12.5 62.2656 37.7344 87.5 68.75 87.5C74.0887 87.5096 79.2484 85.5754 83.2653 82.0589C87.2822 78.5423 89.8817 73.6837 90.5782 68.3906C90.7419 67.0526 90.4686 65.6975 89.7991 64.5275C89.1297 63.3574 88.0998 62.4352 86.8633 61.8984ZM68.75 81.25C55.4937 81.2355 42.7844 75.963 33.4107 66.5894C24.037 57.2157 18.7645 44.5064 18.75 31.25C18.7353 27.4355 20.1096 23.7461 22.6162 20.8707C25.1228 17.9954 28.5903 16.1307 32.3711 15.625C32.3696 15.6406 32.3696 15.6563 32.3711 15.6719L40.5743 34.0313L32.5 43.6953C32.4181 43.7896 32.3436 43.8902 32.2774 43.9961C31.6895 44.8981 31.3447 45.9367 31.2763 47.0112C31.2078 48.0857 31.4181 49.1596 31.8868 50.1289C35.4258 57.3672 42.7188 64.6055 50.0352 68.1406C51.0116 68.6049 52.0918 68.8079 53.1701 68.7298C54.2485 68.6518 55.2881 68.2953 56.1875 67.6953C56.2878 67.6278 56.3843 67.5547 56.4766 67.4766L65.9727 59.375L84.3321 67.5977H84.375C83.8755 71.3838 82.0136 74.8583 79.1377 77.3711C76.2619 79.8839 72.569 81.2629 68.75 81.25Z" fill="#CB0000"/>
</svg>
