<svg width="16" height="16" viewBox="0 0 16 16" fill="none" xmlns="http://www.w3.org/2000/svg">
<path d="M2 14.6667H10M2.66667 6.00001H9.33333M9.33333 14.6667V2.66668C9.33333 2.31305 9.19286 1.97392 8.94281 1.72387C8.69276 1.47382 8.35362 1.33334 8 1.33334H4C3.64638 1.33334 3.30724 1.47382 3.05719 1.72387C2.80714 1.97392 2.66667 2.31305 2.66667 2.66668V14.6667M9.33333 8.66668H10.6667C11.0203 8.66668 11.3594 8.80715 11.6095 9.0572C11.8595 9.30725 12 9.64639 12 10V11.3333C12 11.687 12.1405 12.0261 12.3905 12.2762C12.6406 12.5262 12.9797 12.6667 13.3333 12.6667C13.687 12.6667 14.0261 12.5262 14.2761 12.2762C14.5262 12.0261 14.6667 11.687 14.6667 11.3333V6.55334C14.6668 6.3774 14.6321 6.20317 14.5646 6.0407C14.4971 5.87822 14.3981 5.73072 14.2733 5.60668L12 3.33334" stroke="#CB0000" stroke-width="2" stroke-linecap="round" stroke-linejoin="round"/>
</svg>
