<svg width="99" height="99" viewBox="0 0 99 99" fill="none" xmlns="http://www.w3.org/2000/svg">
<path d="M49.5 55.6875C46.4406 55.6875 43.4499 54.7803 40.906 53.0806C38.3622 51.3808 36.3795 48.9649 35.2087 46.1384C34.038 43.3118 33.7316 40.2016 34.3285 37.201C34.9253 34.2003 36.3986 31.444 38.562 29.2807C40.7253 27.1174 43.4816 25.6441 46.4822 25.0472C49.4828 24.4504 52.5931 24.7567 55.4196 25.9275C58.2462 27.0983 60.6621 29.081 62.3618 31.6248C64.0615 34.1686 64.9688 37.1593 64.9688 40.2188C64.9638 44.3198 63.3325 48.2515 60.4326 51.1514C57.5328 54.0513 53.6011 55.6826 49.5 55.6875ZM49.5 30.9375C47.6644 30.9375 45.8699 31.4818 44.3436 32.5017C42.8173 33.5215 41.6277 34.9711 40.9253 36.667C40.2228 38.3629 40.039 40.2291 40.3971 42.0294C40.7552 43.8298 41.6392 45.4836 42.9372 46.7816C44.2352 48.0796 45.8889 48.9636 47.6893 49.3217C49.4897 49.6798 51.3559 49.496 53.0518 48.7935C54.7477 48.091 56.1973 46.9014 57.2171 45.3751C58.2369 43.8489 58.7813 42.0544 58.7813 40.2188C58.7788 37.758 57.8002 35.3987 56.0601 33.6586C54.3201 31.9186 51.9608 30.94 49.5 30.9375Z" fill="#CB0000"/>
<path d="M49.5 92.8125L23.4012 62.0328C23.0385 61.5706 22.6796 61.1055 22.3245 60.6375C17.8664 54.7649 15.458 47.5919 15.4688 40.2188C15.4688 31.1931 19.0542 22.5371 25.4363 16.155C31.8184 9.77293 40.4744 6.1875 49.5 6.1875C58.5257 6.1875 67.1817 9.77293 73.5638 16.155C79.9459 22.5371 83.5313 31.1931 83.5313 40.2188C83.5421 47.5885 81.1348 54.7583 76.6786 60.6282L76.6755 60.6375C76.6755 60.6375 75.7474 61.8564 75.6082 62.0204L49.5 92.8125ZM27.2622 56.9095C27.2683 56.9095 27.9861 57.8624 28.1501 58.0666L49.5 83.2466L70.8778 58.0326C71.014 57.8624 71.7379 56.9033 71.741 56.9002C75.3828 52.1022 77.3509 46.2424 77.3438 40.2188C77.3438 32.8341 74.4103 25.752 69.1885 20.5302C63.9668 15.3085 56.8847 12.375 49.5 12.375C42.1154 12.375 35.0332 15.3085 29.8115 20.5302C24.5898 25.752 21.6563 32.8341 21.6563 40.2188C21.6498 46.2461 23.617 52.1093 27.2622 56.9095Z" fill="#CB0000"/>
</svg>
