<svg width="100" height="100" viewBox="0 0 100 100" fill="none" xmlns="http://www.w3.org/2000/svg">
<path d="M29.1667 37.5L44.7917 50C46.2697 51.1834 48.1066 51.8281 50 51.8281C51.8934 51.8281 53.7303 51.1834 55.2083 50L70.8333 37.5M87.5 70.8333V29.1667C87.5 26.9565 86.622 24.8369 85.0592 23.2741C83.4964 21.7113 81.3768 20.8333 79.1667 20.8333H20.8333C18.6232 20.8333 16.5036 21.7113 14.9408 23.2741C13.378 24.8369 12.5 26.9565 12.5 29.1667V70.8333C12.5 73.0435 13.378 75.1631 14.9408 76.7259C16.5036 78.2887 18.6232 79.1667 20.8333 79.1667H79.1667C81.3768 79.1667 83.4964 78.2887 85.0592 76.7259C86.622 75.1631 87.5 73.0435 87.5 70.8333Z" stroke="#CB0000" stroke-width="7" stroke-linecap="round" stroke-linejoin="round"/>
</svg>
