<svg width="100" height="100" viewBox="0 0 100 100" fill="none" xmlns="http://www.w3.org/2000/svg">
<g clip-path="url(#clip0_331_4074)">
<path fill-rule="evenodd" clip-rule="evenodd" d="M15.667 16.6667C15.667 14.4566 16.545 12.337 18.1078 10.7742C19.6706 9.21135 21.7902 8.33337 24.0003 8.33337H74.0003C76.2105 8.33337 78.3301 9.21135 79.8929 10.7742C81.4557 12.337 82.3337 14.4566 82.3337 16.6667V83.3334C82.3337 85.5435 81.4557 87.6631 79.8929 89.2259C78.3301 90.7887 76.2105 91.6667 74.0003 91.6667H24.0003C21.7902 91.6667 19.6706 90.7887 18.1078 89.2259C16.545 87.6631 15.667 85.5435 15.667 83.3334V16.6667ZM74.0003 16.6667H24.0003V83.3334H74.0003V16.6667ZM32.3337 37.5C32.3337 36.395 32.7726 35.3352 33.554 34.5538C34.3354 33.7724 35.3953 33.3334 36.5003 33.3334H61.5003C62.6054 33.3334 63.6652 33.7724 64.4466 34.5538C65.228 35.3352 65.667 36.395 65.667 37.5C65.667 38.6051 65.228 39.6649 64.4466 40.4463C63.6652 41.2277 62.6054 41.6667 61.5003 41.6667H36.5003C35.3953 41.6667 34.3354 41.2277 33.554 40.4463C32.7726 39.6649 32.3337 38.6051 32.3337 37.5ZM36.5003 54.1667C35.3953 54.1667 34.3354 54.6057 33.554 55.3871C32.7726 56.1685 32.3337 57.2283 32.3337 58.3334C32.3337 59.4384 32.7726 60.4983 33.554 61.2797C34.3354 62.0611 35.3953 62.5 36.5003 62.5H49.0003C50.1054 62.5 51.1652 62.0611 51.9466 61.2797C52.728 60.4983 53.167 59.4384 53.167 58.3334C53.167 57.2283 52.728 56.1685 51.9466 55.3871C51.1652 54.6057 50.1054 54.1667 49.0003 54.1667H36.5003Z" fill="#CB0000"/>
</g>
<defs>
<clipPath id="clip0_331_4074">
<rect width="100" height="100" fill="white"/>
</clipPath>
</defs>
</svg>
