<svg width="100" height="100" viewBox="0 0 100 100" fill="none" xmlns="http://www.w3.org/2000/svg">
<path d="M25.0003 8.33337C22.7902 8.33337 20.6706 9.21135 19.1078 10.7742C17.545 12.337 16.667 14.4566 16.667 16.6667V83.3334C16.667 85.5435 17.545 87.6631 19.1078 89.2259C20.6706 90.7887 22.7902 91.6667 25.0003 91.6667H75.0003C77.2105 91.6667 79.3301 90.7887 80.8929 89.2259C82.4557 87.6631 83.3337 85.5435 83.3337 83.3334V16.6667C83.3337 14.4566 82.4557 12.337 80.8929 10.7742C79.3301 9.21135 77.2105 8.33337 75.0003 8.33337H25.0003ZM50.0003 20.8334C55.5257 20.8334 60.8247 23.0283 64.7317 26.9353C68.6387 30.8423 70.8337 36.1414 70.8337 41.6667C70.8337 47.1921 68.6387 52.4911 64.7317 56.3981C60.8247 60.3051 55.5257 62.5 50.0003 62.5C44.475 62.5 39.1759 60.3051 35.2689 56.3981C31.3619 52.4911 29.167 47.1921 29.167 41.6667C29.167 36.1414 31.3619 30.8423 35.2689 26.9353C39.1759 23.0283 44.475 20.8334 50.0003 20.8334ZM50.0003 25C48.292 27.5834 46.8753 30.375 46.0003 33.3334H54.0003C53.1036 30.3664 51.7544 27.5555 50.0003 25ZM44.5837 25.9167C40.7503 27.2084 37.5003 29.875 35.5837 33.3334H41.667C42.417 30.75 43.3337 28.25 44.5837 25.9167ZM55.3753 25.9167C56.6253 28.25 57.5837 30.75 58.3337 33.3334H64.417C62.5003 29.875 59.2087 27.25 55.3753 25.9167ZM33.8753 37.5C33.542 38.8334 33.3337 40.2084 33.3337 41.6667C33.3337 43.125 33.542 44.5 33.8753 45.8334H40.917C40.7503 44.4584 40.6253 43.0834 40.6253 41.6667C40.6253 40.25 40.7503 38.875 40.917 37.5H33.8753ZM45.1253 37.5C44.917 38.8334 44.792 40.25 44.792 41.6667C44.792 43.0834 44.917 44.4584 45.1253 45.8334H54.8753C55.042 44.4584 55.2087 43.0834 55.2087 41.6667C55.2087 40.25 55.042 38.8334 54.8753 37.5H45.1253ZM59.0837 37.5C59.2503 38.875 59.3753 40.25 59.3753 41.6667C59.3753 43.0834 59.2503 44.4584 59.0837 45.8334H66.1253C66.4587 44.5 66.667 43.125 66.667 41.6667C66.667 40.2084 66.4587 38.8334 66.1253 37.5H59.0837ZM35.5837 50C37.5003 53.4584 40.7503 56.0834 44.5837 57.4167C43.3337 55.0834 42.417 52.625 41.667 50H35.5837ZM46.0003 50C46.8753 53 48.292 55.75 50.0003 58.3334C51.7503 55.75 53.1253 53 54.0003 50H46.0003ZM58.3337 50C57.5837 52.625 56.6253 55.0834 55.3753 57.4167C59.2087 56.0834 62.5003 53.4584 64.417 50H58.3337ZM29.167 70.8334H70.8337V79.1667H29.167V70.8334Z" fill="#CB0000"/>
</svg>
