<svg width="100" height="100" viewBox="0 0 100 100" fill="none" xmlns="http://www.w3.org/2000/svg">
<path d="M78.1011 11C81.9122 11 85 14.1746 85 18.0902V81.9098C85 85.8254 81.9122 89 78.1011 89H28.7746C24.9635 89 21.8757 85.8254 21.8757 81.9098L21.8718 75.3344H17.5863C16.8932 75.3251 16.2319 75.0409 15.7472 74.5439C15.2626 74.0469 14.994 73.3776 15.0002 72.6824C15.0002 71.2121 16.1591 70.0226 17.5863 70.0226H21.8718V60.5885H17.5863C16.8918 60.5793 16.2294 60.2939 15.7445 59.7952C15.2596 59.2965 14.9919 58.6252 15.0002 57.9287C15.0002 56.4584 16.1591 55.2689 17.5863 55.2689L21.8718 55.265V45.7841H17.5863C16.8932 45.7748 16.2319 45.4906 15.7472 44.9936C15.2626 44.4966 14.994 43.8273 15.0002 43.1321C15.0002 41.6618 16.1591 40.4723 17.5863 40.4723L21.8718 40.4684V30.9758H17.5863C16.8925 30.9665 16.2306 30.6818 15.7458 30.1839C15.2611 29.686 14.9929 29.0157 15.0002 28.3199C15.0002 26.8496 16.1591 25.6601 17.5863 25.6601L21.8718 25.6562L21.8757 18.0902C21.8757 14.1746 24.9635 11 28.7746 11H78.1011ZM65.4701 16.3196H28.479C28.2967 16.3268 28.1178 16.3714 27.9533 16.4505C27.7887 16.5297 27.6421 16.6417 27.5224 16.7798C27.2488 17.0621 27.0835 17.4323 27.0557 17.825V25.6562H30.3379C30.683 25.6577 31.0244 25.7281 31.3421 25.8633C31.6598 25.9986 31.9474 26.196 32.1882 26.444C32.4289 26.692 32.618 26.9856 32.7444 27.3077C32.8707 27.6298 32.9318 27.9739 32.924 28.3199C32.9313 29.0157 32.6631 29.686 32.1784 30.1839C31.6936 30.6818 31.0317 30.9665 30.3379 30.9758H27.0557V40.4567H30.4507L30.6257 40.484L30.3379 40.4684C30.7634 40.468 31.1821 40.5753 31.5551 40.7804L31.6329 40.8233C31.8126 40.9294 31.9752 41.0622 32.1151 41.2172L31.9013 41.0105C32.2033 41.2483 32.4504 41.5489 32.6256 41.8915C32.8008 42.2342 32.9 42.6109 32.9163 42.9956L32.889 42.6836C32.953 43.0408 32.9428 43.4073 32.859 43.7603C32.7753 44.1133 32.6197 44.4452 32.4022 44.7352C32.1846 45.0251 31.9097 45.2669 31.5946 45.4454C31.2796 45.6238 30.9312 45.7352 30.5713 45.7724L30.4546 45.7802L30.3924 45.7841H27.0557V55.265H30.3379C30.7561 55.2655 31.1677 55.37 31.5357 55.5692C31.7768 55.6862 31.9674 55.8266 32.119 56.0021L32.0024 55.889C32.3821 56.2169 32.6623 56.6453 32.8108 57.1253C32.9594 57.6053 32.9703 58.1175 32.8424 58.6034L32.8074 58.7204C32.6243 59.3294 32.2297 59.8524 31.6951 60.1946L31.6563 60.2141C31.2597 60.458 30.8032 60.5863 30.3379 60.5846H27.0557V70.0187H30.4507C30.4818 70.0187 30.5129 70.0265 30.5401 70.0343L30.3379 70.0187C31.7651 70.0187 32.924 71.2082 32.924 72.6785C32.924 73.5443 32.5196 74.3165 31.8935 74.8001L31.8429 74.8391C31.7663 74.8967 31.6857 74.9488 31.6018 74.9951L31.5707 75.0107C31.2436 75.1986 30.8776 75.3081 30.5013 75.3305H30.4507L30.3924 75.3383H30.3379L27.0557 75.3344V82.214C27.079 82.4753 27.1724 82.721 27.3357 82.955L27.5224 83.1812C27.8063 83.4815 28.1563 83.6492 28.5724 83.6882H65.4701V16.3196ZM78.1634 16.3118H70.6267V83.6804H78.3034C78.6572 83.6804 78.9878 83.5166 79.2989 83.1734C79.5802 82.8919 79.763 82.5265 79.82 82.1321V17.9966C79.7853 17.5605 79.6012 17.1499 79.2989 16.8344C79.1538 16.676 78.9786 16.5482 78.7836 16.4584C78.5886 16.3687 78.3778 16.3188 78.1634 16.3118Z" fill="#CB0000"/>
</svg>
