<svg width="16" height="16" viewBox="0 0 16 16" fill="none" xmlns="http://www.w3.org/2000/svg">
<path d="M13.6127 5.3672C13.6193 5.37245 13.6258 5.37771 13.6323 5.38297C14.1041 5.7633 14.4706 6.1588 14.7089 6.50795C14.9656 6.88401 15.0008 7.09777 15 7.13888L15 7.13912C14.9924 7.51901 14.8032 7.87816 14.3073 8.29553C13.7911 8.73009 13.0881 9.10653 12.2696 9.54325L12.2423 9.55778C11.4874 9.96053 10.606 10.4308 9.95647 11.0195C9.25976 11.6509 8.7017 12.5395 8.88787 13.7263L13.6127 5.3672ZM13.6127 5.3672C13.7904 5.63006 13.9365 5.90893 14.014 6.19133C14.0978 6.4969 14.1381 6.94925 13.8752 7.37996C13.6118 7.81159 13.1837 7.99285 12.8368 8.06455C7.9784 9.07355 5.07122 10.3922 2.72908 13.2918L13.6127 5.3672ZM9.54088 15C9.22844 14.6674 8.96953 14.2472 8.88794 13.7267L9.54088 15ZM9.54088 15H2.15884M9.54088 15H2.15884M2.15884 15C2.1673 14.9561 2.17611 14.9116 2.1853 14.8667C2.25408 14.5303 2.3401 14.1873 2.44357 13.8888C2.55234 13.5749 2.65616 13.3823 2.72879 13.2922L2.15884 15ZM4.82161 2.26172L2.50643 3.02649V2.71868L5.03187 2.05471L4.82161 2.26172Z" stroke="#CB0000" stroke-width="2"/>
</svg>
