<svg width="50" height="50" viewBox="0 0 50 50" fill="none" xmlns="http://www.w3.org/2000/svg">
<ellipse cx="24.9206" cy="25" rx="24.9206" ry="25" fill="#CB0000"/>
<g clip-path="url(#clip0_2114_1950)">
<path d="M42.6392 34.4852C42.5972 34.7734 42.5271 35.0547 42.4219 35.2727C42.2327 35.6594 42.0505 35.6945 41.3356 35.6594C40.4104 35.6172 39.0857 35.6594 37.6839 35.7156C37.6839 36.1023 37.6979 36.2852 37.6979 36.2852C37.789 37.3469 38.2656 37.382 38.4549 37.382H41.4687C41.7351 37.382 41.9804 37.382 42.1696 37.2555C42.4149 37.0937 42.5201 36.6227 42.6112 35.8C42.6252 35.6805 42.6322 35.5258 42.6392 35.343V35.3359C42.6392 35.2797 42.6462 35.2094 42.6462 35.132V35.0547C42.6462 34.8648 42.6462 34.6539 42.6392 34.4852ZM7.18804 34.4852C7.23009 34.7734 7.30018 35.0547 7.40532 35.2727C7.59456 35.6594 7.77679 35.6945 8.4917 35.6594C9.41688 35.6172 10.7416 35.6594 12.1434 35.7156C12.1434 36.1023 12.1293 36.2852 12.1293 36.2852C12.0382 37.3469 11.5616 37.382 11.3724 37.382H8.35853C8.09219 37.382 7.86791 37.382 7.65764 37.2555C7.40532 37.1078 7.30719 36.6227 7.21607 35.8C7.20206 35.6805 7.19505 35.5258 7.18804 35.343V35.3359C7.18804 35.2797 7.18103 35.2094 7.18103 35.132V35.0547C7.18804 34.8648 7.18804 34.6539 7.18804 34.4852Z" fill="white"/>
<path d="M42.8635 27.8547C42.8635 25.6961 42.5832 23.5867 42.471 23.3547C42.3869 23.1859 41.8472 22.743 40.6207 21.9063C39.3801 21.0555 39.4081 21.182 39.1838 20.6266C39.3871 20.5633 39.5833 20.4438 39.7025 20.4297C39.9688 20.4016 39.9828 20.6547 40.5365 20.6547C41.0903 20.6547 42.2888 20.507 42.5341 20.2609C42.7794 20.0148 42.8565 19.9305 42.8565 19.7125C42.8565 19.4945 42.7303 19.0445 42.492 18.7773C42.2537 18.5102 41.2374 18.3766 40.6417 18.2992C40.0459 18.2219 39.9618 18.2992 39.8076 18.3977C39.5623 18.5523 39.5483 19.9656 39.5483 19.9656L38.9665 19.9797C38.5881 19.0445 38.0624 17.1602 37.2423 15.6766C36.3452 14.0594 35.406 13.5531 35.0135 13.4266C34.628 13.307 34.2776 13.2227 31.6492 12.9555C28.9648 12.6742 26.8271 12.6391 24.9206 12.6391C23.0142 12.6391 20.8765 12.6813 18.1921 12.9555C15.5637 13.2297 15.2133 13.307 14.8278 13.4266C14.4423 13.5461 13.4961 14.0594 12.5989 15.6766C11.7789 17.1602 11.2532 19.0445 10.8747 19.9797L10.293 19.9656C10.293 19.9656 10.286 18.5523 10.0337 18.3977C9.87948 18.2992 9.79537 18.2148 9.19961 18.2992C8.60386 18.3836 7.58756 18.5102 7.34926 18.7773C7.11095 19.0445 6.98479 19.4945 6.98479 19.7125C6.98479 19.9305 7.06189 20.0219 7.3072 20.2609C7.55252 20.507 8.75104 20.6547 9.30475 20.6547C9.85845 20.6547 9.87247 20.4016 10.1388 20.4297C10.258 20.4438 10.4612 20.5633 10.6575 20.6266C10.4262 21.182 10.4612 21.0555 9.22064 21.9063C7.99408 22.75 7.44738 23.1859 7.37028 23.3547C7.25814 23.5867 6.97778 25.6961 6.97778 27.8547C6.97778 30.0133 7.13198 31.9539 7.13198 32.643C7.13198 32.9312 7.13198 33.4375 7.19506 33.9227C7.23711 34.2109 7.30019 34.4922 7.41234 34.7102C7.60158 35.0969 7.7768 35.132 8.49872 35.0969C9.4239 35.0547 10.7626 35.0969 12.1434 35.1531C13.0685 35.1883 14.0148 35.2234 14.8558 35.2445C16.9585 35.2867 16.3417 34.9352 17.2389 34.9492C18.136 34.9633 21.6755 35.1109 24.9136 35.1109C28.1518 35.1109 31.6983 34.9633 32.5884 34.9492C33.4856 34.9352 32.8688 35.2867 34.9715 35.2445C35.8125 35.2305 36.7587 35.1883 37.6839 35.1531C39.0647 35.1039 40.4104 35.0547 41.3286 35.0969C42.0505 35.132 42.2257 35.0969 42.4149 34.7102C42.5201 34.4922 42.5902 34.2109 42.6322 33.9227C42.7023 33.4375 42.6953 32.9312 42.6953 32.643C42.7093 31.9609 42.8635 30.0133 42.8635 27.8547ZM13.0195 17.2094C13.3559 16.4219 14.3652 14.8398 14.8558 14.5586C14.975 14.4883 16.0193 14.1578 18.6336 13.982C21.0377 13.8203 23.6941 13.757 24.9277 13.757C26.1612 13.757 28.8176 13.8203 31.2217 13.982C33.829 14.1578 34.8873 14.4813 34.9995 14.5586C35.6303 14.9945 36.4994 16.4219 36.8358 17.2094C37.1723 17.9969 37.6208 19.5438 37.5367 19.7547C37.4526 19.9656 37.6208 20.0711 36.4854 19.9797C35.3569 19.8953 28.2709 19.8039 24.9347 19.8039C21.6054 19.8039 14.5194 19.8953 13.3839 19.9797C12.2485 20.0641 12.4167 19.9656 12.3326 19.7547C12.2345 19.5438 12.6831 18.0039 13.0195 17.2094ZM15.5988 26.0125C15.0941 26.1391 14.7927 26.4133 14.1619 26.4063C13.5311 26.4063 11.828 26.118 11.4635 26.1039C11.099 26.0898 10.7766 26.35 10.5874 26.3992C10.3981 26.4484 10.0267 26.3148 9.46595 26.1391C8.90524 25.9633 8.57582 26.0125 8.39359 25.2461C8.20435 24.4867 8.39359 23.3969 8.39359 23.3969C9.60613 23.3406 10.7766 23.4531 12.9704 24.0719C15.1642 24.6906 16.3838 25.8789 16.3838 25.8789C16.3838 25.8789 16.1034 25.8859 15.5988 26.0125ZM32.0838 31.5531C31.0815 31.6867 26.8832 31.7219 24.9206 31.7219C22.9581 31.7219 18.7598 31.6797 17.7575 31.5531C16.7342 31.4195 15.4025 30.1891 16.3207 29.2117C17.5613 27.8828 17.33 27.925 20.1476 27.5594C22.5867 27.243 24.437 27.2289 24.9206 27.2289C25.3973 27.2289 27.2546 27.25 29.6937 27.5594C32.5113 27.925 32.28 27.8828 33.5206 29.2117C34.4388 30.1891 33.1071 31.4195 32.0838 31.5531ZM41.4477 25.2531C41.2585 26.0125 40.9361 25.9703 40.3753 26.1461C39.8146 26.3219 39.4432 26.4484 39.2539 26.4063C39.0647 26.3641 38.7423 26.1039 38.3778 26.1109C38.0133 26.125 36.3102 26.4133 35.6794 26.4133C35.0486 26.4133 34.7472 26.1461 34.2425 26.0195C33.7379 25.893 33.4575 25.893 33.4575 25.893C33.4575 25.893 34.6701 24.6977 36.8709 24.0859C39.0647 23.4672 40.2352 23.3547 41.4477 23.4109C41.4477 23.3969 41.637 24.4867 41.4477 25.2531Z" fill="white"/>
</g>
<defs>
<clipPath id="clip0_2114_1950">
<rect width="35.8857" height="36" fill="white" transform="translate(6.97778 7)"/>
</clipPath>
</defs>
</svg>
